<svg xmlns="http://www.w3.org/2000/svg" viewBox="0 0 620 230">
  <defs>
    <linearGradient id="nuc-body" x1="0" y1="0" x2="0" y2="1">
      <stop offset="0" stop-color="#2a2c2e"/>
      <stop offset="0.5" stop-color="#1c1e20"/>
      <stop offset="1" stop-color="#0e0f10"/>
    </linearGradient>
    <linearGradient id="nuc-cap" x1="0" y1="0" x2="0" y2="1">
      <stop offset="0" stop-color="#34373a"/>
      <stop offset="0.5" stop-color="#222426"/>
      <stop offset="1" stop-color="#121314"/>
    </linearGradient>
    <linearGradient id="nuc-panel" x1="0" y1="0" x2="0" y2="1">
      <stop offset="0" stop-color="#0a0b0c"/>
      <stop offset="0.5" stop-color="#141618"/>
      <stop offset="1" stop-color="#050606"/>
    </linearGradient>
  </defs>

  <g class="chassis chassis-nuc-n150">
    <!-- outer case body (flattened front face) -->
    <rect x="20" y="28" width="580" height="176" rx="18" fill="url(#nuc-body)" stroke="#050606" stroke-width="2"/>
    <!-- rounded end caps (smooth, vs finned middle) -->
    <rect x="20" y="28" width="56" height="176" rx="18" fill="url(#nuc-cap)" stroke="#050606" stroke-width="1.5"/>
    <rect x="544" y="28" width="56" height="176" rx="18" fill="url(#nuc-cap)" stroke="#050606" stroke-width="1.5"/>

    <!-- top cooling-fin vent hint -->
    <g stroke="#3a3d40" stroke-width="2" opacity="0.4">
      <line x1="86" y1="42" x2="534" y2="42"/>
      <line x1="86" y1="50" x2="534" y2="50"/>
      <line x1="86" y1="58" x2="534" y2="58"/>
      <line x1="86" y1="66" x2="534" y2="66"/>
    </g>

    <!-- ===== I/O PANEL recessed plate ===== -->
    <rect x="70" y="92" width="480" height="104" rx="6" fill="url(#nuc-panel)" stroke="#000000" stroke-width="2"/>
    <rect x="73" y="95" width="474" height="98" rx="5" fill="none" stroke="#34383b" stroke-width="0.8" opacity="0.6"/>
    <!-- panel corner screws -->
    <circle cx="84" cy="104" r="4.5" fill="#2a2d30" stroke="#0a0b0c" stroke-width="1"/>
    <circle cx="536" cy="104" r="4.5" fill="#2a2d30" stroke="#0a0b0c" stroke-width="1"/>
    <circle cx="84" cy="184" r="4.5" fill="#2a2d30" stroke="#0a0b0c" stroke-width="1"/>
    <circle cx="536" cy="184" r="4.5" fill="#2a2d30" stroke="#0a0b0c" stroke-width="1"/>

    <!-- silkscreen port labels (decoration) -->
    <g font-family="Arial, Helvetica, sans-serif" font-size="11" fill="#c7cbce" text-anchor="middle">
      <text x="150" y="116">ETH0</text>
      <text x="212" y="116">ETH1</text>
      <text x="274" y="116">ETH2</text>
      <text x="362" y="116">SFP0</text>
      <text x="432" y="116">SFP1</text>
    </g>

    <!-- decoration: ground / wifi-antenna / clear-CMOS holes (NOT in ports list) -->
    <circle cx="500" cy="138" r="6" fill="#0a0b0c" stroke="#34383b" stroke-width="1"/>
    <circle cx="500" cy="138" r="2.5" fill="#1c1e20"/>
    <circle cx="520" cy="156" r="4" fill="#0a0b0c" stroke="#34383b" stroke-width="0.8"/>
    <path d="M490 168 q6 -6 12 0" fill="none" stroke="#6d7276" stroke-width="1.2"/>
    <path d="M493 171 q3 -3 6 0" fill="none" stroke="#6d7276" stroke-width="1"/>

    <!-- brand silkscreen -->
    <text x="310" y="220" text-anchor="middle" font-family="Arial, Helvetica, sans-serif" font-size="10" letter-spacing="2" fill="#5a5e62">N150  MINI-PC</text>
  </g>
</svg>
