<svg xmlns="http://www.w3.org/2000/svg" width="1200" height="675" viewBox="0 0 1200 675" role="img" aria-label="Grouped Network Zones screenshot preview">
  <defs>
    <radialGradient id="bg" cx="50%" cy="0%" r="90%">
      <stop offset="0" stop-color="#27313d"/>
      <stop offset="1" stop-color="#11151a"/>
    </radialGradient>
    <linearGradient id="card" x1="0" x2="1" y1="0" y2="1">
      <stop offset="0" stop-color="#20262e"/>
      <stop offset="1" stop-color="#171c22"/>
    </linearGradient>
  </defs>
  <rect width="1200" height="675" fill="url(#bg)"/>
  <text x="48" y="54" fill="#9aa3ad" font-family="Inter, Segoe UI, sans-serif" font-size="18" font-weight="800" letter-spacing="2">NETWORK TOPOLOGY CARD</text>
  <text x="48" y="94" fill="#f8fafc" font-family="Inter, Segoe UI, sans-serif" font-size="34" font-weight="800">Grouped Network Zones</text>
  <rect x="48" y="128" width="1104" height="492" rx="24" fill="url(#card)" stroke="#303844"/>
  <text x="72" y="172" fill="#f8fafc" font-family="Inter, Segoe UI, sans-serif" font-size="22" font-weight="800">Grouped Network Zones</text>
  <g font-family="Inter, Segoe UI, sans-serif">
    <path d="M198 275 C 225 180, 225 260, 330 195" fill="none" stroke="#95a3b3" stroke-width="8" stroke-linecap="round" opacity="0.62"/><path d="M198 275 C 225 180, 225 260, 330 195" fill="none" stroke="#f59e0b" stroke-width="4" stroke-linecap="round" opacity="0.92"/><path d="M408 195 C 435 100, 435 420, 540 355" fill="none" stroke="#95a3b3" stroke-width="8" stroke-linecap="round" opacity="0.62"/><path d="M408 195 C 435 100, 435 420, 540 355" fill="none" stroke="#f59e0b" stroke-width="4" stroke-linecap="round" opacity="0.92"/>
    <g transform="translate(120 250)">
  <rect width="156" height="62" rx="12" fill="#252b33" stroke="#596170" stroke-width="2"/>
  <rect x="14" y="18" width="22" height="22" rx="4" fill="#11151a" stroke="#728093"/>
  <circle cx="46" cy="29" r="4" fill="#f59e0b"/>
  <circle cx="58" cy="29" r="4" fill="#f2b53a"/>
  <text x="74" y="28" fill="#f4f6f8" font-size="16" font-weight="700">Edge</text>
  <text x="74" y="47" fill="#9aa3ad" font-size="11">template + ports</text>
</g><g transform="translate(330 170)">
  <rect width="156" height="62" rx="12" fill="#252b33" stroke="#596170" stroke-width="2"/>
  <rect x="14" y="18" width="22" height="22" rx="4" fill="#11151a" stroke="#728093"/>
  <circle cx="46" cy="29" r="4" fill="#f59e0b"/>
  <circle cx="58" cy="29" r="4" fill="#f2b53a"/>
  <text x="74" y="28" fill="#f4f6f8" font-size="16" font-weight="700">Servers</text>
  <text x="74" y="47" fill="#9aa3ad" font-size="11">template + ports</text>
</g><g transform="translate(540 330)">
  <rect width="156" height="62" rx="12" fill="#252b33" stroke="#596170" stroke-width="2"/>
  <rect x="14" y="18" width="22" height="22" rx="4" fill="#11151a" stroke="#728093"/>
  <circle cx="46" cy="29" r="4" fill="#f59e0b"/>
  <circle cx="58" cy="29" r="4" fill="#f2b53a"/>
  <text x="74" y="28" fill="#f4f6f8" font-size="16" font-weight="700">Clients</text>
  <text x="74" y="47" fill="#9aa3ad" font-size="11">template + ports</text>
</g>
    <rect x="70" y="480" width="360" height="112" rx="16" fill="#11151a" opacity="0.7" stroke="#384252"/>
    <text x="72" y="452" fill="#f59e0b" font-size="14" font-weight="800" letter-spacing="1.4">EXAMPLE HIGHLIGHTS</text>
    <text x="72" y="510" fill="#cbd5e1" font-size="18">• Dashed zone boxes</text><text x="72" y="538" fill="#cbd5e1" font-size="18">• Auto-sized groups</text>
  </g>
</svg>
