<svg xmlns="http://www.w3.org/2000/svg" viewBox="0 0 56 30">
  <defs>
    <linearGradient id="sfpCage" x1="0" y1="0" x2="0" y2="1">
      <stop offset="0" stop-color="#6a7079"/>
      <stop offset="0.5" stop-color="#464b51"/>
      <stop offset="1" stop-color="#2b2f34"/>
    </linearGradient>
    <linearGradient id="sfpBezel" x1="0" y1="0" x2="0" y2="1">
      <stop offset="0" stop-color="#3d4147"/>
      <stop offset="1" stop-color="#23262a"/>
    </linearGradient>
    <linearGradient id="sfpOpen" x1="0" y1="0" x2="0" y2="1">
      <stop offset="0" stop-color="#0b0c0e"/>
      <stop offset="1" stop-color="#1d2024"/>
    </linearGradient>
  </defs>
  <g class="port port-sfp">
    <rect class="cage" x="2" y="2" width="52" height="26" rx="2.2" fill="url(#sfpCage)" stroke="#191c1f" stroke-width="0.8"/>
    <rect x="3.2" y="2.9" width="49.6" height="1.3" rx="0.65" fill="#8a9099" opacity="0.5"/>
    <rect class="cage" x="4" y="4" width="48" height="22" rx="1.6" fill="url(#sfpBezel)"/>
    <rect class="port-opening" x="6" y="9" width="44" height="12" rx="1.2" fill="url(#sfpOpen)" stroke="#070809" stroke-width="0.6"/>
    <rect x="7.4" y="10" width="1" height="10" rx="0.4" fill="#33373c" opacity="0.8"/>
    <rect x="47.6" y="10" width="1" height="10" rx="0.4" fill="#33373c" opacity="0.8"/>
    <rect x="14" y="17.4" width="28" height="2.6" rx="0.6" fill="#3a3f45"/>
    <g fill="#2a2e33">
      <rect x="11" y="9.6" width="1.1" height="1.4"/>
      <rect x="16" y="9.6" width="1.1" height="1.4"/>
      <rect x="21" y="9.6" width="1.1" height="1.4"/>
      <rect x="26" y="9.6" width="1.1" height="1.4"/>
      <rect x="31" y="9.6" width="1.1" height="1.4"/>
      <rect x="36" y="9.6" width="1.1" height="1.4"/>
      <rect x="41" y="9.6" width="1.1" height="1.4"/>
    </g>
    <rect class="led led-link" x="6" y="5" width="6" height="2.6" rx="1.2" fill="#3a3f44"/>
  </g>
</svg>
